<svg width="249" height="48" viewBox="0 0 249 48" fill="none" xmlns="http://www.w3.org/2000/svg">
<g clip-path="url(#clip0_1_471)">
<path d="M25.8907 48.0004C23.8995 47.9991 21.9151 47.7701 19.9761 47.318C16.6669 46.5582 13.5417 45.1512 10.7812 43.1785C8.02075 41.2058 5.67973 38.7066 3.89394 35.8254C0.28062 30.0167 -0.875235 23.0154 0.679822 16.3576C2.23488 9.69971 6.37377 3.92908 12.1887 0.311712C12.6546 0.0237433 13.216 -0.0682324 13.7497 0.0559439C14.2834 0.18012 14.7462 0.510321 15.0363 0.974165C15.1799 1.20413 15.2765 1.4601 15.3208 1.72742C15.3652 1.99475 15.3563 2.26818 15.2946 2.53207C15.2329 2.79595 15.1197 3.04512 14.9614 3.26529C14.8031 3.48547 14.6028 3.67233 14.372 3.8152C9.48724 6.854 6.01042 11.7016 4.70421 17.2946C3.398 22.8875 4.36912 28.7688 7.40461 33.6483C8.90459 36.0688 10.8709 38.1684 13.1899 39.8254C15.509 41.4825 18.1348 42.6642 20.9148 43.302C23.6912 43.9553 26.5698 44.0527 29.3841 43.5887C32.1984 43.1247 34.8925 42.1084 37.3104 40.5987C37.7762 40.311 38.3372 40.2191 38.8707 40.3433C39.4042 40.4675 39.8668 40.7975 40.1569 41.2611C40.4459 41.7257 40.5387 42.2857 40.4145 42.8183C40.2903 43.3509 39.9594 43.8126 39.4945 44.1022C35.4155 46.647 30.7017 47.9977 25.8907 48.0004Z" fill="#F04444"/>
<path d="M43.9447 41.3595C45.1407 41.3595 46.1102 40.3923 46.1102 39.1993C46.1102 38.0062 45.1407 37.0391 43.9447 37.0391C42.7487 37.0391 41.7791 38.0062 41.7791 39.1993C41.7791 40.3923 42.7487 41.3595 43.9447 41.3595Z" fill="#F04444"/>
<path d="M18.4481 21.2573C18.4176 20.0976 18.6241 18.9437 19.055 17.8662C19.4859 16.7886 20.1324 15.8101 20.9547 14.9897C21.777 14.1694 22.758 13.5246 23.8382 13.0947C24.9184 12.6649 26.0749 12.4589 27.2375 12.4893C28.6899 12.4703 30.1228 12.8267 31.3963 13.5237C32.6698 14.2207 33.7406 15.2347 34.5048 16.467L31.6316 18.1285C31.1863 17.368 30.5423 16.7424 29.7684 16.3183C28.9946 15.8942 28.1198 15.6876 27.2375 15.7205C26.5021 15.6854 25.7676 15.8052 25.0817 16.0722C24.3958 16.3392 23.7739 16.7473 23.2567 17.27C22.7395 17.7927 22.3385 18.4184 22.0799 19.106C21.8212 19.7937 21.7106 20.5279 21.7554 21.261C21.7132 21.9923 21.8257 22.7244 22.0857 23.4094C22.3456 24.0945 22.7472 24.7172 23.2642 25.2374C23.7812 25.7576 24.4022 26.1634 25.0867 26.4285C25.7713 26.6937 26.504 26.8122 27.2375 26.7763C28.1174 26.8115 28.9905 26.6083 29.7641 26.1886C30.5377 25.7688 31.1831 25.148 31.6316 24.392L34.5048 26.0543C33.7448 27.2905 32.6749 28.3074 31.4004 29.005C30.1259 29.7026 28.691 30.0566 27.2375 30.032C26.0749 30.0604 24.9186 29.8527 23.8389 29.4217C22.7593 28.9907 21.7788 28.3452 20.9568 27.5246C20.1348 26.704 19.4885 25.7252 19.0573 24.6478C18.626 23.5704 18.4187 22.417 18.4481 21.2573Z" fill="#101727"/>
<path d="M36.6063 12.1045H39.7212V29.6878H36.6063V12.1045Z" fill="#101727"/>
<path d="M48.6065 27.2066C49.1197 27.2264 49.6307 27.1282 50.0997 26.9194C50.5687 26.7106 50.9832 26.3969 51.3112 26.0026L53.8225 27.4475C53.2322 28.2831 52.4407 28.9572 51.5207 29.4075C50.6008 29.8579 49.5819 30.0701 48.5582 30.0247C44.5016 30.0247 41.942 27.2556 41.942 23.6665C41.9127 22.8235 42.0576 21.9834 42.3675 21.1987C42.6775 20.4139 43.1461 19.7012 43.744 19.1048C44.3418 18.5083 45.0563 18.0409 45.843 17.7317C46.6297 17.4225 47.4717 17.2782 48.3167 17.3074C51.8901 17.3074 54.4254 20.1255 54.4254 23.6665C54.4236 24.0945 54.3833 24.5215 54.305 24.9424H45.2011C45.6374 26.5327 46.9655 27.2066 48.6065 27.2066ZM51.3112 22.5336C51.1927 21.8355 50.8243 21.204 50.2742 20.7566C49.7242 20.3092 49.0299 20.0761 48.3206 20.1009C47.5865 20.0507 46.8592 20.2705 46.2764 20.7187C45.6936 21.1669 45.2955 21.8125 45.1574 22.5336H51.3112Z" fill="#101727"/>
<path d="M67.4915 17.6445L62.9043 29.6886H59.3553L54.7674 17.6445H58.1959L61.1176 26.0751L64.0638 17.6445H67.4915Z" fill="#101727"/>
<path d="M74.5401 27.2066C75.0533 27.2264 75.5643 27.1281 76.0333 26.9193C76.5023 26.7105 76.9168 26.3968 77.2448 26.0026L79.7561 27.4475C79.1658 28.2832 78.3742 28.9573 77.4543 29.4077C76.5343 29.858 75.5155 30.0702 74.4918 30.0247C70.436 30.0247 67.8756 27.2556 67.8756 23.6664C67.8464 22.8235 67.9913 21.9835 68.3013 21.1988C68.6113 20.4141 69.0798 19.7015 69.6777 19.1051C70.2756 18.5087 70.99 18.0413 71.7766 17.7321C72.5632 17.4228 73.4052 17.2782 74.2503 17.3074C77.8237 17.3074 80.3589 20.1255 80.3589 23.6664C80.3572 24.0945 80.3165 24.5215 80.2376 24.9423H71.1354C71.5709 26.5327 72.9013 27.2066 74.5401 27.2066ZM77.2448 22.5336C77.1263 21.8355 76.7577 21.204 76.2076 20.7566C75.6575 20.3092 74.9633 20.0761 74.254 20.1009C73.5198 20.0506 72.7926 20.2705 72.2098 20.7187C71.627 21.1669 71.2289 21.8125 71.0908 22.5336H77.2448Z" fill="#101727"/>
<path d="M103.449 16.007H98.8852V29.6882H95.5534V16.007H91.0145V12.8271H103.449V16.007Z" fill="#101727"/>
<path d="M115.257 17.6441V29.6867H112.141V28.2663C111.668 28.8451 111.066 29.3056 110.382 29.6111C109.699 29.9165 108.954 30.0586 108.206 30.0257C104.994 30.0257 102.339 27.2565 102.339 23.6674C102.339 20.0782 104.994 17.3083 108.206 17.3083C108.954 17.2755 109.699 17.4175 110.382 17.7229C111.066 18.0284 111.668 18.489 112.141 19.0678V17.6473L115.257 17.6441ZM112.141 23.6659C112.163 23.2182 112.092 22.7707 111.932 22.3519C111.772 21.933 111.526 21.5519 111.211 21.2326C110.896 20.9134 110.517 20.6628 110.1 20.497C109.682 20.3312 109.235 20.2539 108.785 20.2695C108.338 20.2563 107.893 20.3355 107.478 20.5024C107.062 20.6694 106.686 20.9205 106.373 21.2396C106.06 21.5587 105.817 21.9389 105.658 22.3565C105.5 22.7742 105.43 23.22 105.453 23.6659C105.43 24.1118 105.5 24.5575 105.659 24.975C105.817 25.3926 106.061 25.7727 106.374 26.0917C106.687 26.4107 107.063 26.6617 107.478 26.8286C107.893 26.9955 108.338 27.0747 108.785 27.0615C109.234 27.077 109.682 26.9993 110.099 26.8335C110.516 26.6676 110.894 26.4172 111.21 26.098C111.525 25.7788 111.77 25.398 111.93 24.9793C112.091 24.5607 112.162 24.1134 112.14 23.6659H112.141Z" fill="#101727"/>
<path d="M131 23.6661C131 27.2552 128.345 30.0244 125.109 30.0244C124.364 30.0626 123.62 29.9229 122.94 29.6169C122.26 29.3109 121.663 28.8474 121.198 28.2649V34.5031H118.084V17.6428H121.198V19.0633C121.663 18.4809 122.26 18.0175 122.94 17.7115C123.62 17.4055 124.364 17.2657 125.109 17.3038C128.344 17.3069 131 20.0769 131 23.6661ZM127.886 23.6661C127.908 23.2183 127.837 22.7709 127.676 22.352C127.516 21.9332 127.271 21.5521 126.955 21.2328C126.64 20.9136 126.261 20.663 125.844 20.4972C125.426 20.3314 124.979 20.254 124.53 20.2697C124.083 20.2566 123.637 20.336 123.222 20.503C122.807 20.67 122.431 20.9208 122.118 21.2399C121.805 21.559 121.562 21.9394 121.403 22.3569C121.245 22.7745 121.175 23.2202 121.198 23.6661C121.175 24.1119 121.245 24.5576 121.404 24.975C121.562 25.3925 121.806 25.7727 122.119 26.0917C122.432 26.4106 122.807 26.6615 123.222 26.8284C123.637 26.9953 124.083 27.0748 124.53 27.0617C124.979 27.0774 125.426 26.9999 125.844 26.8342C126.261 26.6684 126.64 26.4179 126.955 26.0987C127.27 25.7795 127.516 25.3985 127.676 24.9797C127.836 24.5609 127.908 24.1137 127.886 23.6661Z" fill="#101727"/>
<path d="M85.6864 29.6876H82.5799V17.3199H86.8857C88.2044 17.2316 89.505 17.6641 90.5068 18.5241C91.5086 19.384 92.1313 20.6024 92.2404 21.9163L89.1646 22.3486C88.9024 20.5005 87.6125 20.375 87.0727 20.414H85.6856L85.6864 29.6876Z" fill="#101727"/>
</g>
<defs>
<clipPath id="clip0_1_471">
<rect width="131" height="48" fill="white"/>
</clipPath>
</defs>
</svg>
