<svg width="24" height="24" viewBox="0 0 24 24" fill="none" xmlns="http://www.w3.org/2000/svg">
<path d="M5.16699 5C5.16699 3.61929 6.28628 2.5 7.66699 2.5H14.667C14.6945 2.5 14.7208 2.51091 14.7402 2.53033L20.1367 7.92678C20.1561 7.9462 20.167 7.97254 20.167 8V19C20.167 20.3807 19.0477 21.5 17.667 21.5H7.66699C6.28628 21.5 5.16699 20.3807 5.16699 19V5Z" stroke="white"/>
<path d="M14.667 2.25V4C14.667 6.20914 16.4579 8 18.667 8H20.417" stroke="white"/>
<rect x="0.999023" y="11" width="15" height="7" rx="1" fill="white"/>
<path d="M13.1149 13.8118C13.088 13.7193 13.0501 13.6375 13.0013 13.5665C12.9525 13.4943 12.8928 13.4335 12.8222 13.384C12.7528 13.3333 12.6732 13.2947 12.5833 13.2681C12.4947 13.2414 12.3965 13.2281 12.2886 13.2281C12.087 13.2281 11.9098 13.2776 11.757 13.3764C11.6055 13.4753 11.4874 13.6191 11.4026 13.808C11.3179 13.9956 11.2755 14.225 11.2755 14.4962C11.2755 14.7674 11.3172 14.9981 11.4007 15.1882C11.4842 15.3783 11.6023 15.5234 11.7551 15.6236C11.9079 15.7224 12.0883 15.7719 12.2963 15.7719C12.4851 15.7719 12.6462 15.7389 12.7798 15.673C12.9146 15.6058 13.0173 15.5114 13.088 15.3897C13.1599 15.2681 13.1958 15.1242 13.1958 14.9582L13.3653 14.9829H12.3483V14.3631H13.999V14.8536C13.999 15.1958 13.9258 15.4899 13.7794 15.7357C13.633 15.9804 13.4314 16.1692 13.1746 16.3023C12.9178 16.4341 12.6238 16.5 12.2925 16.5C11.9227 16.5 11.5978 16.4195 11.3179 16.2586C11.0379 16.0963 10.8196 15.8663 10.663 15.5684C10.5076 15.2693 10.4299 14.9144 10.4299 14.5038C10.4299 14.1882 10.4762 13.9068 10.5686 13.6597C10.6623 13.4113 10.7933 13.2009 10.9615 13.0285C11.1298 12.8561 11.3256 12.725 11.549 12.635C11.7724 12.545 12.0145 12.5 12.2751 12.5C12.4986 12.5 12.7066 12.5323 12.8992 12.597C13.0918 12.6603 13.2626 12.7503 13.4115 12.8669C13.5618 12.9835 13.6844 13.1223 13.7794 13.2833C13.8745 13.443 13.9354 13.6191 13.9624 13.8118H13.1149Z" fill="#0071E4"/>
<path d="M9.81022 12.5532V16.4468H9.08986L7.3737 13.9962H7.34481V16.4468H6.5108V12.5532H7.24272L8.9454 15.0019H8.98007V12.5532H9.81022Z" fill="#0071E4"/>
<path d="M2.99902 16.4468V12.5532H4.55532C4.85451 12.5532 5.10939 12.6096 5.31998 12.7224C5.53057 12.834 5.69108 12.9892 5.80151 13.1882C5.91322 13.3859 5.96908 13.6141 5.96908 13.8726C5.96908 14.1312 5.91258 14.3593 5.79958 14.557C5.68658 14.7547 5.52286 14.9087 5.30842 15.019C5.09527 15.1293 4.83717 15.1844 4.53413 15.1844H3.54219V14.5247H4.3993C4.55981 14.5247 4.69207 14.4974 4.79608 14.4429C4.90137 14.3872 4.9797 14.3105 5.03107 14.2129C5.08371 14.1141 5.11004 14.0006 5.11004 13.8726C5.11004 13.7433 5.08371 13.6305 5.03107 13.5342C4.9797 13.4366 4.90137 13.3612 4.79608 13.308C4.69079 13.2535 4.55724 13.2262 4.39545 13.2262H3.83303V16.4468H2.99902Z" fill="#0071E4"/>
</svg>
