<svg width="249" height="48" viewBox="0 0 249 48" fill="none" xmlns="http://www.w3.org/2000/svg">
<g clip-path="url(#clip0_1_429)">
<path d="M124.183 14.6873V22.5638C124.183 23.9532 124.702 24.9311 125.994 24.9311C128.208 24.9311 129.042 21.8708 129.042 18.4944V14.6873H133.355L133.337 28.3943H130.405L129.445 23.0579C128.898 26.3196 127.26 28.4264 124.471 28.4264C121.279 28.4264 119.871 26.2041 119.871 22.5672V14.6873H124.183Z" fill="black"/>
<path d="M54.6677 14.6614C54.7948 14.4203 54.8636 14.1526 54.8684 13.8798C54.8684 13.2155 54.4662 12.8377 53.7188 12.8117L55.0163 10.7622C56.569 10.8196 57.5464 11.6862 57.5464 12.8985C57.5464 13.793 57.0577 14.486 55.8787 15.1781C56.5181 15.5086 57.0548 16.0092 57.4301 16.6252C57.8053 17.2412 58.0048 17.9488 58.0066 18.6708C58.0066 21.0668 55.7351 23.1449 51.6817 23.1449C50.6566 23.1649 49.6355 23.0086 48.6629 22.6829C48.4708 22.757 48.3025 22.8821 48.1759 23.0449C48.0493 23.2076 47.9691 23.4019 47.9441 23.6069C47.9441 24.3572 48.7494 24.5873 49.7554 24.5873H52.9464C57.1442 24.5873 59.2427 26.1175 59.2427 28.4552C59.2427 31.4 56.4254 32.9293 51.4231 32.9293C47.2538 32.9293 43.8907 32.0053 43.8907 29.7544C43.8907 28.1956 45.8162 27.3011 48.2606 27.2725C45.8456 26.9251 44.6095 26.2043 44.6095 24.5873C44.6095 23.1449 46.3057 22.3937 47.5989 22.1923C46.9362 21.8753 46.3765 21.3763 45.9847 20.753C45.593 20.1298 45.3851 19.4078 45.3854 18.6708C45.3854 16.0439 47.829 14.1681 51.6817 14.1681C52.6972 14.1681 53.7058 14.3347 54.6677 14.6614ZM50.7285 27.592C48.9751 27.592 47.9112 28.054 47.9112 29.0935C47.9112 30.1894 49.2909 30.7669 51.5909 30.7669C53.9489 30.7669 55.3 30.0722 55.3 28.9485C55.3 28.1669 54.5527 27.592 53 27.592H50.7285ZM51.68 16.3644C51.07 16.3644 50.485 16.6076 50.0536 17.0407C49.6223 17.4737 49.38 18.061 49.38 18.6735C49.38 19.2859 49.6223 19.8732 50.0536 20.3062C50.485 20.7393 51.07 20.9826 51.68 20.9826C51.9863 20.999 52.2927 20.9505 52.5791 20.8402C52.8656 20.73 53.1257 20.5605 53.3427 20.3427C53.5596 20.1249 53.7284 19.8637 53.8383 19.5761C53.9481 19.2886 53.9964 18.981 53.98 18.6735C54.0016 18.3644 53.9569 18.0543 53.8487 17.7642C53.7406 17.474 53.5717 17.2105 53.3534 16.9916C53.135 16.7727 52.8724 16.6034 52.5833 16.4951C52.2941 16.3869 51.9852 16.3423 51.6774 16.3644H51.68Z" fill="black"/>
<path d="M84.5376 28.4871C82.2376 28.4871 81.0015 26.9856 80.2827 25.2826V32.9316H75.9698V14.748H78.4713L79.3908 19.0197C79.9375 16.8834 81.1451 14.4588 84.4226 14.4588C88.0452 14.4588 90.0286 17.4895 90.0286 21.4729C90.0286 25.4563 88.1023 28.4871 84.5376 28.4871ZM83.0429 17.3454C81.5187 17.3454 80.2827 18.9085 80.2827 21.4729C80.2827 24.0373 81.5187 25.6005 83.0429 25.6005C84.7962 25.6005 85.7166 23.8975 85.7166 21.4729C85.7166 19.0483 84.7962 17.3454 83.0429 17.3454Z" fill="black"/>
<path d="M64.2121 14.6875V22.564C64.2121 23.9534 64.7311 24.9312 66.0226 24.9312C68.237 24.9312 69.0709 21.871 69.0709 18.4946V14.6875H73.3829L73.3665 28.3945H70.4341L69.4731 23.0581C68.9264 26.3198 67.2881 28.4266 64.4993 28.4266C61.3083 28.4266 59.8992 26.2043 59.8992 22.5674V14.6875H64.2121Z" fill="black"/>
<path d="M96.8331 28.4231C95.6372 28.4635 94.4484 28.2243 93.3603 27.7244C92.2723 27.2245 91.3148 26.4776 90.5636 25.5426L92.4752 23.567C92.9586 24.2498 93.5885 24.815 94.3185 25.2208C95.0485 25.6266 95.86 25.8627 96.693 25.9117C97.8175 25.9117 98.1825 25.375 98.1825 24.7827C98.1825 24.1062 97.5926 23.6825 96.0459 23.1744C92.3628 21.9587 91.2668 20.7186 91.2668 18.485C91.2668 15.832 93.5158 14.7031 96.5805 14.7031C98.7099 14.689 100.763 15.4974 102.315 16.961L100.825 18.9939C99.7103 17.9312 98.2556 17.3009 96.7206 17.2154C95.8773 17.2154 95.3998 17.5541 95.3998 18.2037C95.3998 19.1346 96.1869 19.3326 98.1263 20.0942C100.797 21.1363 102.315 22.0985 102.315 24.2999C102.315 26.899 100.207 28.4231 96.8331 28.4231Z" fill="black"/>
<path d="M113.259 28.4231V20.544C113.259 19.1546 112.74 18.1767 111.447 18.1767C109.234 18.1767 108.4 21.2361 108.4 24.6134V28.4231H104.087V9.19998H108.4V19.5914C108.946 16.4738 110.671 14.684 112.971 14.684C116.162 14.684 117.571 16.9071 117.571 20.544V28.4231H113.259Z" fill="black"/>
<path d="M144.509 28.4871C142.209 28.4871 140.972 26.9856 140.254 25.2826V32.9316H135.942V14.748H138.443L139.363 19.0197C139.909 16.8834 141.117 14.4588 144.394 14.4588C148.016 14.4588 150 17.4895 150 21.4729C150 25.4563 148.074 28.4871 144.509 28.4871ZM143.014 17.3454C141.491 17.3454 140.254 18.9085 140.254 21.4729C140.254 24.0373 141.491 25.6005 143.014 25.6005C144.768 25.6005 145.688 23.8975 145.688 21.4729C145.688 19.0483 144.768 17.3454 143.014 17.3454Z" fill="black"/>
<path d="M27.4976 25.4511C27.4172 26.1145 27.1085 26.7289 26.6248 27.1879C26.1488 27.6797 25.5217 27.996 24.8446 28.0859C21.9933 28.3534 19.1325 28.5055 16.269 28.5418C15.1458 28.5547 14.0725 29.0093 13.2795 29.8079L9.52022 33.5829V30.6008C9.51901 30.0098 9.29556 29.4411 8.8946 29.0085C8.49364 28.5758 7.94474 28.3111 7.35772 28.2674C6.6216 28.2144 5.87943 28.1519 5.14591 28.0833C4.46883 27.9934 3.84168 27.6771 3.36573 27.1853C2.88476 26.7278 2.57818 26.1159 2.499 25.4555C2.16338 21.0959 2.16338 16.7168 2.499 12.3572C2.57748 11.6938 2.88545 11.0792 3.36919 10.6204C3.84509 10.1285 4.47222 9.81182 5.14937 9.7216C11.7003 9.10415 18.2945 9.10415 24.8455 9.7216C25.5226 9.81182 26.1497 10.1285 26.6256 10.6204C27.1094 11.0795 27.4181 11.6938 27.4984 12.3572C27.8309 16.7155 27.8307 21.0929 27.4976 25.4511Z" fill="#5E34F1" stroke="#5E34F1"/>
<path d="M28.4062 41.0001C28.1986 40.9999 27.9931 40.9587 27.8015 40.8787C27.6099 40.7986 27.4359 40.6814 27.2894 40.5337L22.3944 35.622C22.0162 35.2387 21.5028 35.0203 20.9654 35.0141C19.2605 34.9933 18.4708 34.9716 17.1534 34.8839C16.865 34.8524 16.5999 34.7103 16.4135 34.4872C16.2271 34.2641 16.1337 33.9773 16.1529 33.6868C16.1721 33.3962 16.3024 33.1244 16.5165 32.928C16.7307 32.7316 17.0122 32.6259 17.3021 32.6329C18.5676 32.7198 19.334 32.7389 20.9922 32.7589C22.1159 32.7706 23.1899 33.2254 23.9825 34.025L27.741 37.7982V34.8231C27.7422 34.2323 27.9655 33.6637 28.3663 33.231C28.7671 32.7984 29.3158 32.5336 29.9026 32.4896C30.6387 32.4358 31.3826 32.3742 32.1144 32.3055C32.7929 32.2156 33.4215 31.899 33.8989 31.4067C34.3824 30.9477 34.6906 30.3332 34.77 29.6699C35.1056 25.3103 35.1056 20.9313 34.77 16.5717C34.6782 15.9853 34.4244 15.4365 34.0374 14.9878C33.6503 14.539 33.1456 14.2083 32.5807 14.0333C32.3066 13.938 32.0798 13.74 31.9477 13.4807C31.8156 13.2214 31.7884 12.9209 31.8718 12.642C31.9552 12.363 32.1428 12.1273 32.3953 11.9839C32.6478 11.8406 32.9457 11.8007 33.2268 11.8727C34.2256 12.1778 35.1146 12.7674 35.7861 13.5699C36.4575 14.3724 36.8825 15.3534 37.0095 16.3937C37.3537 20.8715 37.3537 25.3693 37.0095 29.8471C36.8666 31.0423 36.3289 32.155 35.4821 33.0074C34.6354 33.8598 33.5286 34.4028 32.3385 34.5495H32.3307C31.5825 34.619 30.8212 34.6824 30.0687 34.7371C30.0479 34.74 30.0289 34.7505 30.0152 34.7665C30.0015 34.7824 29.9941 34.8029 29.9943 34.8239V39.4109C29.9942 39.62 29.953 39.827 29.8731 40.0201C29.7932 40.2132 29.6761 40.3886 29.5286 40.5362C29.3811 40.6838 29.206 40.8008 29.0134 40.8804C28.8208 40.96 28.6144 41.0006 28.4062 41.0001Z" fill="#FF3964"/>
<path d="M29.7362 12.1782C29.593 10.9833 29.0551 9.871 28.2084 9.01894C27.3617 8.16688 26.2551 7.62419 25.0652 7.47751H25.0557C18.3644 6.84575 11.6288 6.84575 4.93746 7.47751H4.92794C3.73754 7.62435 2.63051 8.16754 1.78377 9.02029C0.937029 9.87305 0.399448 10.9861 0.256932 12.1817C-0.0882075 16.6595 -0.0882075 21.1573 0.256932 25.6351C0.400711 26.8296 0.938848 27.9413 1.78548 28.7928C2.63211 29.6443 3.73844 30.1866 4.92794 30.3332H4.93746C5.68568 30.4044 6.44689 30.4669 7.19944 30.5199C7.22022 30.5229 7.23923 30.5333 7.25291 30.5493C7.2666 30.5652 7.27403 30.5857 7.27383 30.6068V35.1954C7.2739 35.5089 7.36677 35.8153 7.54065 36.0757C7.71454 36.3361 7.96159 36.5387 8.25042 36.6578C8.44249 36.7374 8.64814 36.7787 8.85592 36.7794C9.06307 36.7794 9.26818 36.7383 9.4595 36.6586C9.65083 36.5789 9.82461 36.4621 9.9709 36.3148L14.8685 31.3996C15.2465 31.0159 15.76 30.7975 16.2975 30.7917C19.184 30.757 22.1328 30.6015 25.0565 30.3271H25.0661C26.2559 30.1805 27.3626 29.6378 28.2092 28.7857C29.0559 27.9336 29.5938 26.8213 29.7371 25.6264C30.0809 21.1503 30.0806 16.6543 29.7362 12.1782ZM27.4976 25.451C27.4173 26.1144 27.1085 26.7288 26.6248 27.1878C26.1488 27.6796 25.5217 27.9959 24.8446 28.0858C21.9933 28.3532 19.1325 28.5053 16.269 28.5417C15.1458 28.5546 14.0725 29.0092 13.2795 29.8078L9.52024 33.5828V30.6007C9.51902 30.0097 9.29558 29.441 8.89462 29.0084C8.49366 28.5757 7.94475 28.311 7.35773 28.2673C6.62162 28.2143 5.87945 28.1518 5.14592 28.0832C4.46884 27.9933 3.84169 27.677 3.36575 27.1852C2.88478 26.7277 2.57819 26.1158 2.49902 25.4553C2.16339 21.0958 2.16339 16.7167 2.49902 12.3571C2.5775 11.6937 2.88547 11.079 3.36921 10.6203C3.84511 10.1283 4.47223 9.8117 5.14938 9.72148C11.7003 9.10403 18.2945 9.10403 24.8455 9.72148C25.5226 9.8117 26.1498 10.1283 26.6257 10.6203C27.1094 11.0794 27.4181 11.6937 27.4984 12.3571C27.831 16.7154 27.8307 21.0928 27.4976 25.451Z" fill="#5E34F1"/>
<path d="M10.8895 23.4946C10.6903 23.4947 10.4958 23.4341 10.3316 23.3209L6.08097 20.4022C5.94824 20.3108 5.83966 20.1884 5.76464 20.0455C5.68963 19.9026 5.65042 19.7435 5.65042 19.5819C5.65042 19.4204 5.68963 19.2613 5.76464 19.1184C5.83966 18.9755 5.94824 18.8531 6.08097 18.7617L10.3316 15.8421C10.5483 15.6934 10.8149 15.6371 11.073 15.6857C11.331 15.7343 11.5592 15.8838 11.7074 16.1014C11.8556 16.3189 11.9116 16.5866 11.8632 16.8457C11.8148 17.1047 11.6658 17.3338 11.4492 17.4826L8.39312 19.5815L11.4492 21.6805C11.6234 21.8005 11.7548 21.9734 11.8242 22.1739C11.8936 22.3743 11.8973 22.5917 11.8347 22.7944C11.7722 22.9971 11.6468 23.1744 11.4767 23.3004C11.3066 23.4263 11.1009 23.4944 10.8895 23.4946Z" fill="white"/>
<path d="M33.8986 31.4067C34.382 30.9476 34.6902 30.3331 34.7696 29.6698C35.1052 25.3103 35.1052 20.9312 34.7696 16.5716C34.6779 15.9852 34.424 15.4364 34.037 14.9877C33.65 14.5389 33.1453 14.2083 32.5803 14.0332C32.3659 13.9691 32.1757 13.8417 32.0345 13.6676C32.4057 18.7123 32.3994 23.7777 32.0154 28.8214C31.9192 29.6022 31.5553 30.3249 30.9861 30.8656C30.425 31.4454 29.6858 31.8186 28.8876 31.9251C25.5141 32.2412 22.112 32.421 18.7792 32.4618C18.3484 32.4692 17.9203 32.5313 17.505 32.6467C18.6564 32.7206 19.4271 32.7405 20.9979 32.7596C22.1216 32.7714 23.1956 33.2261 23.9882 34.0258L27.7467 37.799V34.823C27.7477 34.2331 27.9702 33.6654 28.3697 33.2329C28.7693 32.8004 29.3165 32.535 29.9022 32.4896C30.6384 32.4357 31.3823 32.3741 32.1141 32.3055C32.7925 32.2155 33.4211 31.8989 33.8986 31.4067Z" fill="#FF3964"/>
<path d="M19.107 23.4946C18.8957 23.4944 18.6899 23.4263 18.5198 23.3004C18.3498 23.1744 18.2243 22.9971 18.1618 22.7944C18.0993 22.5917 18.1029 22.3743 18.1723 22.1739C18.2417 21.9734 18.3731 21.8005 18.5474 21.6805L21.6034 19.5815L18.5474 17.4826C18.3307 17.3338 18.1817 17.1047 18.1333 16.8457C18.0849 16.5866 18.141 16.3189 18.2892 16.1014C18.4374 15.8838 18.6656 15.7343 18.9236 15.6857C19.1816 15.6371 19.4483 15.6934 19.6649 15.8421L23.9156 18.7617C24.0483 18.8531 24.1569 18.9755 24.2319 19.1184C24.3069 19.2613 24.3461 19.4204 24.3461 19.5819C24.3461 19.7435 24.3069 19.9026 24.2319 20.0455C24.1569 20.1884 24.0483 20.3108 23.9156 20.4022L19.6649 23.3209C19.5007 23.434 19.3062 23.4946 19.107 23.4946Z" fill="white"/>
<path d="M13.5494 26.4107C13.3989 26.4109 13.2503 26.3766 13.115 26.3104C12.9797 26.2442 12.8612 26.148 12.7685 26.0289C12.6758 25.9098 12.6114 25.7711 12.5802 25.6233C12.549 25.4754 12.5518 25.3224 12.5884 25.1758L15.4965 13.4983C15.5602 13.2427 15.7224 13.0229 15.9475 12.8873C16.1725 12.7517 16.4421 12.7115 16.6967 12.7754C16.9514 12.8393 17.1703 13.0021 17.3053 13.2281C17.4404 13.4541 17.4805 13.7246 17.4168 13.9803L14.5095 25.6604C14.4555 25.8749 14.3317 26.0651 14.1578 26.201C13.9839 26.3369 13.7698 26.4107 13.5494 26.4107Z" fill="white"/>
</g>
<defs>
<clipPath id="clip0_1_429">
<rect width="150" height="34" fill="white" transform="translate(0 7)"/>
</clipPath>
</defs>
</svg>
