<svg width="148" height="24" viewBox="0 0 148 24" fill="none" xmlns="http://www.w3.org/2000/svg">
<circle cx="11.5" cy="12" r="11.5" fill="white"/>
<path d="M10.1278 18.0906C9.61405 18.0906 9.15023 17.9586 8.73635 17.6946C8.32248 17.4174 8.11554 16.9686 8.11554 16.3482C8.11554 15.9391 8.1869 15.4639 8.32961 14.9227C8.4866 14.3815 8.67927 13.8271 8.90761 13.2596C9.13595 12.6788 9.37143 12.1442 9.61405 11.6558C9.87094 11.1543 10.0993 10.7451 10.2991 10.4283C10.6131 9.96632 10.9627 9.68253 11.348 9.57693C11.7476 9.47134 12.2329 9.41854 12.8037 9.41854C13.2176 9.41854 13.5601 9.46474 13.8313 9.55714C14.1024 9.63633 14.1453 9.72873 13.9597 9.83432C13.6886 10.0059 13.3389 10.3887 12.9108 10.9827C12.4826 11.5766 12.0688 12.2432 11.6692 12.9824C11.555 13.1936 11.4123 13.4774 11.241 13.8337C11.0697 14.1769 10.8985 14.5465 10.7272 14.9425C10.5702 15.3253 10.4347 15.6949 10.3205 16.0513C10.2063 16.3944 10.1492 16.6782 10.1492 16.9026C10.1492 17.2326 10.3134 17.3976 10.6416 17.3976C10.9841 17.3976 11.3694 17.2458 11.7976 16.9422C11.9974 16.797 12.1829 16.632 12.3542 16.4472C12.5254 16.2624 12.6824 16.0777 12.8251 15.8929C13.1106 15.5365 13.3675 15.1537 13.5958 14.7445C13.8384 14.3221 14.0596 13.9261 14.2594 13.5566C14.3022 13.4774 14.3593 13.4378 14.4307 13.4378C14.5306 13.4378 14.6162 13.484 14.6876 13.5764C14.7589 13.6688 14.7661 13.7678 14.709 13.8733C14.4949 14.2693 14.2309 14.7379 13.9169 15.2791C13.6029 15.8071 13.239 16.2954 12.8251 16.7442C12.4684 17.127 12.0616 17.4504 11.6049 17.7144C11.1625 17.9652 10.6701 18.0906 10.1278 18.0906ZM13.1891 8.42858C12.9465 8.42858 12.7538 8.35599 12.6111 8.21079C12.4684 8.0524 12.397 7.84781 12.397 7.59702C12.397 7.29343 12.4826 7.01625 12.6539 6.76546C12.8251 6.51467 13.0392 6.31008 13.2961 6.15168C13.553 5.99329 13.817 5.91409 14.0882 5.91409C14.3308 5.91409 14.5235 5.99329 14.6662 6.15168C14.8089 6.29688 14.8802 6.48167 14.8802 6.70606C14.8802 6.99645 14.7946 7.27363 14.6234 7.53762C14.4521 7.80161 14.238 8.0194 13.9811 8.19099C13.7243 8.34939 13.4602 8.42858 13.1891 8.42858Z" fill="#0071E4"/>
<path d="M34.7316 5.11231V19.5027H31V5.11231H34.7316Z" fill="white"/>
<path d="M36.6939 13.7629C36.6939 12.5877 36.9267 11.5559 37.3922 10.6676C37.8723 9.77927 38.5197 9.09597 39.3344 8.61766C40.1491 8.13934 41.0584 7.90019 42.0622 7.90019C42.8623 7.90019 43.5897 8.05735 44.2444 8.37167C44.9136 8.68599 45.4374 9.10964 45.8156 9.64261V4.33334H49.5472V19.5027H45.8156V17.8628C45.4665 18.4094 44.9646 18.8467 44.3099 19.1747C43.6698 19.5027 42.9205 19.6667 42.0622 19.6667C41.0584 19.6667 40.1491 19.4275 39.3344 18.9492C38.5197 18.4572 37.8723 17.7671 37.3922 16.8788C36.9267 15.9768 36.6939 14.9382 36.6939 13.7629ZM45.8156 13.7834C45.8156 12.9088 45.5538 12.2187 45.03 11.713C44.5208 11.2074 43.8953 10.9546 43.1533 10.9546C42.4113 10.9546 41.7785 11.2074 41.2548 11.713C40.7456 12.205 40.491 12.8883 40.491 13.7629C40.491 14.6376 40.7456 15.3345 41.2548 15.8538C41.7785 16.3595 42.4113 16.6123 43.1533 16.6123C43.8953 16.6123 44.5208 16.3595 45.03 15.8538C45.5538 15.3482 45.8156 14.6581 45.8156 13.7834Z" fill="white"/>
<path d="M63.7254 13.5989C63.7254 13.9269 63.7036 14.2686 63.6599 14.6239H55.2147C55.2729 15.3345 55.513 15.8812 55.9348 16.2638C56.3713 16.6328 56.9023 16.8173 57.5279 16.8173C58.459 16.8173 59.1064 16.4483 59.4701 15.7104H63.4417C63.238 16.462 62.8671 17.1385 62.3288 17.7398C61.805 18.3411 61.1431 18.8125 60.3429 19.1542C59.5428 19.4959 58.6481 19.6667 57.6588 19.6667C56.4659 19.6667 55.4038 19.4275 54.4728 18.9492C53.5417 18.4709 52.8143 17.7876 52.2905 16.8993C51.7668 16.011 51.5049 14.9724 51.5049 13.7834C51.5049 12.5945 51.7595 11.5559 52.2687 10.6676C52.7924 9.77927 53.5198 9.09597 54.4509 8.61766C55.382 8.13934 56.4513 7.90019 57.6588 7.90019C58.8372 7.90019 59.8847 8.13251 60.8012 8.59716C61.7178 9.0618 62.4306 9.72461 62.9398 10.5856C63.4635 11.4465 63.7254 12.451 63.7254 13.5989ZM59.9065 12.6765C59.9065 12.0752 59.6883 11.5969 59.2518 11.2415C58.8154 10.8862 58.2698 10.7086 57.6152 10.7086C56.9896 10.7086 56.4586 10.8794 56.0221 11.221C55.6002 11.5627 55.3384 12.0478 55.2365 12.6765H59.9065Z" fill="white"/>
<path d="M64.952 13.7629C64.952 12.5877 65.1848 11.5559 65.6504 10.6676C66.1305 9.77927 66.7778 9.09597 67.5925 8.61766C68.4072 8.13934 69.3165 7.90019 70.3203 7.90019C71.1787 7.90019 71.9279 8.06418 72.568 8.39217C73.2227 8.72015 73.7246 9.15063 74.0738 9.68361V8.06418H77.8054V19.5027H74.0738V17.8833C73.7101 18.4162 73.2009 18.8467 72.5462 19.1747C71.9061 19.5027 71.1568 19.6667 70.2985 19.6667C69.3092 19.6667 68.4072 19.4275 67.5925 18.9492C66.7778 18.4572 66.1305 17.7671 65.6504 16.8788C65.1848 15.9768 64.952 14.9382 64.952 13.7629ZM74.0738 13.7834C74.0738 12.9088 73.8119 12.2187 73.2882 11.713C72.779 11.2074 72.1534 10.9546 71.4114 10.9546C70.6695 10.9546 70.0366 11.2074 69.5129 11.713C69.0037 12.205 68.7491 12.8883 68.7491 13.7629C68.7491 14.6376 69.0037 15.3345 69.5129 15.8538C70.0366 16.3595 70.6695 16.6123 71.4114 16.6123C72.1534 16.6123 72.779 16.3595 73.2882 15.8538C73.8119 15.3482 74.0738 14.6581 74.0738 13.7834Z" fill="white"/>
<path d="M84.2366 4.33334V19.5027H80.505V4.33334H84.2366Z" fill="white"/>
<path d="M100.84 12.123C101.727 12.3007 102.44 12.7175 102.978 13.3735C103.517 14.0158 103.786 14.7537 103.786 15.5874C103.786 16.79 103.335 17.7466 102.433 18.4572C101.545 19.1542 100.302 19.5027 98.7012 19.5027H91.5653V5.11231H98.4612C100.018 5.11231 101.233 5.44713 102.105 6.11677C102.993 6.7864 103.437 7.6952 103.437 8.84315C103.437 9.69044 103.197 10.3942 102.717 10.9546C102.251 11.5149 101.625 11.9043 100.84 12.123ZM95.2969 10.9341H97.741C98.3521 10.9341 98.8176 10.8111 99.1377 10.5651C99.4723 10.3054 99.6396 9.9296 99.6396 9.43762C99.6396 8.94564 99.4723 8.56983 99.1377 8.31017C98.8176 8.05052 98.3521 7.92069 97.741 7.92069H95.2969V10.9341ZM98.0466 16.6738C98.6721 16.6738 99.1522 16.544 99.4868 16.2843C99.836 16.011 100.011 15.6215 100.011 15.1159C100.011 14.6102 99.8287 14.2139 99.465 13.9269C99.1158 13.6399 98.6285 13.4964 98.0029 13.4964H95.2969V16.6738H98.0466Z" fill="white"/>
<path d="M105.208 13.7629C105.208 12.5877 105.441 11.5559 105.906 10.6676C106.387 9.77927 107.034 9.09597 107.849 8.61766C108.663 8.13934 109.573 7.90019 110.576 7.90019C111.435 7.90019 112.184 8.06418 112.824 8.39217C113.479 8.72015 113.981 9.15063 114.33 9.68361V8.06418H118.062V19.5027H114.33V17.8833C113.966 18.4162 113.457 18.8467 112.802 19.1747C112.162 19.5027 111.413 19.6667 110.555 19.6667C109.565 19.6667 108.663 19.4275 107.849 18.9492C107.034 18.4572 106.387 17.7671 105.906 16.8788C105.441 15.9768 105.208 14.9382 105.208 13.7629ZM114.33 13.7834C114.33 12.9088 114.068 12.2187 113.544 11.713C113.035 11.2074 112.41 10.9546 111.668 10.9546C110.926 10.9546 110.293 11.2074 109.769 11.713C109.26 12.205 109.005 12.8883 109.005 13.7629C109.005 14.6376 109.26 15.3345 109.769 15.8538C110.293 16.3595 110.926 16.6123 111.668 16.6123C112.41 16.6123 113.035 16.3595 113.544 15.8538C114.068 15.3482 114.33 14.6581 114.33 13.7834Z" fill="white"/>
<path d="M128.181 7.94119C129.606 7.94119 130.741 8.3785 131.585 9.25313C132.443 10.1141 132.873 11.303 132.873 12.82V19.5027H129.163V13.2915C129.163 12.5262 128.952 11.9317 128.53 11.508C128.108 11.0844 127.541 10.8726 126.828 10.8726C126.115 10.8726 125.548 11.0844 125.126 11.508C124.704 11.9317 124.493 12.5262 124.493 13.2915V19.5027H120.761V8.06418H124.493V9.58112C124.871 9.07547 125.38 8.67915 126.02 8.39217C126.66 8.09151 127.381 7.94119 128.181 7.94119Z" fill="white"/>
<path d="M142.907 19.5027L139.197 14.7059V19.5027H135.466V4.33334H139.197V12.7175L142.885 8.06418H147.49L142.427 13.8039L147.533 19.5027H142.907Z" fill="white"/>
</svg>
