<svg width="22" height="22" viewBox="0 0 22 22" fill="none" xmlns="http://www.w3.org/2000/svg">
<path d="M11 21C16.5228 21 21 16.5228 21 11C21 5.47715 16.5228 1 11 1C5.47715 1 1 5.47715 1 11C1 16.5228 5.47715 21 11 21Z" fill="#F0F0F0"/>
<path d="M10.9999 1C7.03531 1 3.60969 3.30723 1.99219 6.65219H20.0076C18.3902 3.30723 14.9645 1 10.9999 1Z" fill="#FF9811"/>
<path d="M10.9999 21.0008C14.9645 21.0008 18.3902 18.6936 20.0077 15.3486H1.99219C3.60969 18.6936 7.03531 21.0008 10.9999 21.0008Z" fill="#6DA544"/>
<path d="M10.9999 14.4782C12.9209 14.4782 14.4782 12.921 14.4782 11C14.4782 9.07899 12.9209 7.52173 10.9999 7.52173C9.07893 7.52173 7.52167 9.07899 7.52167 11C7.52167 12.921 9.07893 14.4782 10.9999 14.4782Z" fill="#0052B4"/>
<path d="M11.0001 13.173C12.2007 13.173 13.174 12.1997 13.174 10.9991C13.174 9.79848 12.2007 8.8252 11.0001 8.8252C9.79946 8.8252 8.82617 9.79848 8.82617 10.9991C8.82617 12.1997 9.79946 13.173 11.0001 13.173Z" fill="#F0F0F0"/>
<path d="M11.0007 8.31714L11.6714 9.83815L13.3239 9.65843L12.342 10.9997L13.3239 12.341L11.6714 12.1613L11.0007 13.6823L10.3301 12.1613L8.67755 12.341L9.65943 10.9997L8.67755 9.65843L10.3301 9.83815L11.0007 8.31714Z" fill="#0052B4"/>
</svg>
