<svg width="249" height="48" viewBox="0 0 249 48" fill="none" xmlns="http://www.w3.org/2000/svg">
<g clip-path="url(#clip0_1_455)">
<path d="M51.62 18.7851C51.62 18.0776 51.068 17.4972 50.2953 17.4972C49.5226 17.4972 48.9706 18.0776 48.9706 18.7851V29.2329C48.9706 29.9403 49.5226 30.5208 50.2953 30.5208C51.0864 30.5208 51.62 29.9403 51.62 29.2329V18.7851Z" fill="black"/>
<path d="M64.6648 17.4971C63.8921 17.4971 63.3584 18.0775 63.3584 18.7849V23.247L63.432 27.2376L61.8314 23.5009L59.7339 19.2565C59.09 17.9324 58.3541 17.4971 57.3053 17.4971C55.7599 17.4971 55.0791 18.4584 55.0791 19.8369V29.2327C55.0791 29.9402 55.6126 30.5207 56.3855 30.5207C57.1582 30.5207 57.6917 29.9402 57.6917 29.2327L57.6733 24.8251L57.6181 20.3085L59.3292 24.4441L61.445 28.7611C62.1074 30.1396 62.8066 30.5388 63.8736 30.5388C65.2535 30.5388 65.971 29.7043 65.971 28.1626V18.7849C65.971 18.0775 65.4375 17.4971 64.6648 17.4971Z" fill="black"/>
<path d="M75.7401 20.1633L78.739 20.2358C79.4382 20.254 79.9902 19.728 79.9902 18.9661C79.9902 18.2043 79.4382 17.6783 78.739 17.6783L70.0548 17.6602C69.3742 17.6602 68.8038 18.1862 68.8038 18.948C68.8038 19.7098 69.3742 20.2358 70.0548 20.2177L73.0723 20.1633V29.2326C73.0723 29.94 73.6241 30.5205 74.397 30.5205C75.1881 30.5205 75.7401 29.94 75.7401 29.2326V20.1633Z" fill="black"/>
<path d="M84.6311 30.3578H91.0889C91.7697 30.3578 92.3217 29.8499 92.3217 29.1424C92.3217 28.4169 91.7697 27.909 91.0889 27.909L85.4774 27.9272V24.898H90.3345C90.997 24.898 91.5305 24.4082 91.5305 23.7372C91.5305 23.0478 90.997 22.5581 90.3345 22.5581L85.4774 22.5944V20.0913H91.0889C91.7697 20.0913 92.3217 19.5834 92.3217 18.8579C92.3217 18.1323 91.7697 17.6426 91.0889 17.6426L84.6494 17.6607C83.4718 17.6607 82.8096 18.3137 82.8096 19.4746V28.5439C82.8096 29.7047 83.4719 30.3578 84.6311 30.3578Z" fill="black"/>
<path d="M102.84 25.1877C104.588 24.7343 105.619 23.392 105.619 21.6144C105.619 19.6373 104.312 17.6602 101.184 17.6602H97.1367C95.9593 17.6602 95.2969 18.3131 95.2969 19.474V29.2326C95.2969 29.94 95.8489 30.5205 96.6585 30.5205C97.4495 30.5205 98.0199 29.94 98.0199 29.2326L98.0015 25.8225H100.228L102.491 29.8493C102.859 30.4661 103.631 30.7199 104.349 30.3572C105.067 29.9763 105.269 29.2144 104.883 28.5978L102.84 25.1877ZM98.0015 20.0726H101.203C102.288 20.0726 102.969 20.7437 102.969 21.7413C102.969 22.7208 102.325 23.4465 101.24 23.4465H98.0015V20.0726Z" fill="black"/>
<path d="M113.745 30.5937C116.431 30.5937 118.161 29.3966 118.749 27.4557C119.062 26.3492 118.4 25.5512 117.406 25.5512C116.799 25.5512 116.394 25.8595 116.155 26.5307C115.787 27.5465 114.885 28.1814 113.598 28.1814C111.555 28.1814 110.672 26.8208 110.672 23.9912C110.672 21.216 111.574 19.8919 113.598 19.8919C114.867 19.8919 115.603 20.418 116.063 21.6332C116.321 22.3225 116.744 22.6308 117.369 22.6308C118.326 22.6308 119.025 21.869 118.731 20.817C118.142 18.6766 116.431 17.4795 113.671 17.4795C109.881 17.4795 107.949 19.765 107.949 23.9912C107.949 28.2538 109.881 30.5937 113.745 30.5937Z" fill="black"/>
<path d="M126.825 30.5568C130.725 30.5568 132.657 28.1987 132.657 23.9905C132.657 19.7461 130.67 17.4062 126.825 17.4062C122.961 17.4062 121.029 19.7824 121.011 23.9905C121.011 28.2168 122.979 30.5568 126.825 30.5568ZM126.825 28.1262C124.654 28.1262 123.715 26.7659 123.715 23.9905C123.715 21.1791 124.672 19.8187 126.806 19.8187C128.959 19.8187 129.971 21.1791 129.953 23.9905C129.953 26.7838 128.996 28.1262 126.825 28.1262Z" fill="black"/>
<path d="M149.784 19.765C149.784 18.332 148.883 17.4795 147.485 17.4795C146.344 17.4795 145.479 18.0962 145.056 19.511L143.639 24.0638L142.701 27.3469L141.8 24.0638L140.291 19.511C139.868 18.1869 139.132 17.4795 137.844 17.4795C136.427 17.4795 135.544 18.3139 135.544 19.765V29.2333C135.544 29.9408 136.059 30.5212 136.813 30.5212C137.568 30.5212 138.083 29.9408 138.083 29.2333L138.065 24.6624L137.936 19.765L139.389 24.7713L140.935 29.197C141.266 30.1765 141.891 30.5031 142.701 30.5031C143.455 30.5031 144.062 30.2309 144.375 29.2333L145.847 24.7713L147.411 19.7287L147.264 24.6624V29.2333C147.264 29.9408 147.797 30.5212 148.533 30.5212C149.288 30.5212 149.803 29.9408 149.803 29.2333L149.784 19.765Z" fill="black"/>
<path d="M29.7812 25.7052C29.7812 26.0076 29.6607 26.2975 29.4462 26.5112C29.2316 26.7249 28.9407 26.8451 28.6372 26.8451C28.3337 26.8451 28.0428 26.7249 27.8282 26.5112C27.6137 26.2975 27.4932 26.0076 27.4932 25.7052V15.5232C27.4932 15.2209 27.6137 14.931 27.8282 14.7173C28.0428 14.5036 28.3337 14.3835 28.6372 14.3835C28.9407 14.3835 29.2316 14.5036 29.4462 14.7173C29.6607 14.931 29.7812 15.2209 29.7812 15.5232V25.7052ZM29.3841 32.7603C29.2328 32.9109 24.9784 36.4431 17.1785 36.4431C9.37872 36.4431 5.15261 32.9298 4.97299 32.779C4.85979 32.684 4.76654 32.5675 4.6986 32.4365C4.63065 32.3053 4.58934 32.1622 4.57705 32.0152C4.56475 31.8682 4.5817 31.7202 4.62694 31.5797C4.67216 31.4393 4.74478 31.309 4.84062 31.1966C5.03807 30.969 5.31784 30.8285 5.61892 30.8054C5.92 30.7825 6.21797 30.8792 6.44786 31.0742C6.51405 31.1213 10.3147 34.1919 17.1691 34.1919C24.0235 34.1919 27.8525 31.1024 27.8904 31.0742C28.1228 30.8808 28.4218 30.7855 28.7236 30.8084C29.0255 30.8313 29.3066 30.9705 29.507 31.1966C29.6998 31.4209 29.7961 31.7119 29.7749 32.0064C29.7537 32.3009 29.6166 32.5753 29.3935 32.7696L29.3841 32.7603ZM4.56645 15.5232C4.58355 15.22 4.72044 14.9358 4.9472 14.7329C5.17396 14.5299 5.47216 14.4246 5.77661 14.44C6.05884 14.456 6.32515 14.5755 6.52417 14.7755C6.7232 14.9755 6.84084 15.2419 6.8544 15.5232V25.6865C6.8544 25.9887 6.73387 26.2786 6.51934 26.4923C6.3048 26.7062 6.01383 26.8262 5.71043 26.8262C5.40703 26.8262 5.11605 26.7062 4.90151 26.4923C4.68698 26.2786 4.56645 25.9887 4.56645 25.6865V15.5232ZM10.3052 13.2626C10.3223 12.9594 10.4592 12.6752 10.686 12.4723C10.9127 12.2693 11.2109 12.164 11.5154 12.1794C11.7976 12.1954 12.0639 12.3149 12.263 12.5149C12.462 12.7149 12.5796 12.9813 12.5932 13.2626V28.3332C12.5932 28.6356 12.4727 28.9254 12.2581 29.1391C12.0436 29.3529 11.7526 29.4729 11.4492 29.4729C11.1458 29.4729 10.8548 29.3529 10.6403 29.1391C10.4258 28.9254 10.3052 28.6356 10.3052 28.3332V13.2626ZM16.0724 12.6975C16.0724 12.3952 16.1929 12.1053 16.4075 11.8916C16.622 11.6778 16.913 11.5578 17.2163 11.5578C17.5198 11.5578 17.8107 11.6778 18.0253 11.8916C18.2398 12.1053 18.3603 12.3952 18.3603 12.6975V29.0868C18.3603 29.389 18.2398 29.6789 18.0253 29.8927C17.8107 30.1064 17.5198 30.2265 17.2163 30.2265C16.913 30.2265 16.622 30.1064 16.4075 29.8927C16.1929 29.6789 16.0724 29.389 16.0724 29.0868V12.6975ZM21.745 13.2626C21.745 12.9604 21.8655 12.6705 22.0801 12.4567C22.2946 12.243 22.5856 12.1229 22.8889 12.1229C23.1924 12.1229 23.4833 12.243 23.6979 12.4567C23.9124 12.6705 24.0329 12.9604 24.0329 13.2626V28.3332C24.0329 28.6356 23.9124 28.9254 23.6979 29.1391C23.4833 29.3529 23.1924 29.4729 22.8889 29.4729C22.5856 29.4729 22.2946 29.3529 22.0801 29.1391C21.8655 28.9254 21.745 28.6356 21.745 28.3332V13.2626ZM30.0931 7.04599H4.30172C3.73974 7.04227 3.18254 7.14902 2.66204 7.36013C2.14152 7.57125 1.66792 7.88257 1.26834 8.27629C0.86876 8.67001 0.551055 9.13837 0.333415 9.65459C0.115775 10.1708 0.00247428 10.7247 0 11.2846V36.7163C0.00247428 37.2761 0.115775 37.8301 0.333415 38.3463C0.551055 38.8624 0.86876 39.3309 1.26834 39.7246C1.66792 40.1182 2.14152 40.4297 2.66204 40.6407C3.18254 40.8519 3.73974 40.9585 4.30172 40.9548H30.0931C30.6543 40.9585 31.2108 40.8522 31.7306 40.6416C32.2506 40.4312 32.7238 40.1206 33.1232 39.7278C33.5227 39.3352 33.8406 38.8679 34.0587 38.3527C34.277 37.8377 34.3912 37.2847 34.3948 36.7257V11.2846C34.3924 10.7255 34.2794 10.1724 34.0623 9.65678C33.8454 9.14118 33.5285 8.67324 33.1298 8.27964C32.7313 7.88604 32.2589 7.57452 31.7394 7.36285C31.22 7.15118 30.6638 7.04351 30.1026 7.04599" fill="black"/>
</g>
<defs>
<clipPath id="clip0_1_455">
<rect width="150" height="34" fill="white" transform="translate(0 7)"/>
</clipPath>
</defs>
</svg>
