<svg width="249" height="48" viewBox="0 0 249 48" fill="none" xmlns="http://www.w3.org/2000/svg">
<path d="M9.23678 24.7844C8.92016 24.7685 8.60277 24.79 8.29118 24.8484C7.77137 24.9322 7.27344 25.1187 6.82642 25.3969C6.3794 25.6752 5.99222 26.0396 5.68743 26.4689C5.38264 26.8983 5.16635 27.384 5.05115 27.8977C4.93596 28.4115 4.92416 28.9431 5.01645 29.4615C5.24299 31.5994 7.52227 33.4021 9.63227 33.4558C9.84883 33.4613 10.0654 33.4469 10.2794 33.4128C12.5626 33.0432 13.1604 30.6904 12.7841 28.3792C12.359 25.7698 10.4991 24.8499 9.23678 24.7844ZM11.474 30.9668C11.3777 31.1111 11.2439 31.2265 11.087 31.3006C10.9301 31.3748 10.756 31.4049 10.5833 31.3878C10.2798 31.3638 9.99669 31.2252 9.79143 31.0003C9.58618 30.7754 9.47409 30.4808 9.47787 30.1764C9.4726 29.7706 9.55082 29.3681 9.70769 28.9939C9.80565 28.7561 9.81507 28.4911 9.73423 28.247C9.65338 28.003 9.48765 27.796 9.26714 27.6637C8.99619 27.4957 8.67111 27.4382 8.35896 27.5029C8.05664 27.5609 7.78949 27.7361 7.61569 27.9902C7.49837 28.1798 7.40678 28.3843 7.34333 28.5981C7.33096 28.6355 7.32114 28.6648 7.31369 28.684C7.21023 28.9478 7.04514 29.025 6.93351 29.0106C6.8924 29.0031 6.85433 28.9839 6.82383 28.9553C6.79333 28.9268 6.7717 28.89 6.76151 28.8495C6.70361 28.4973 6.73074 28.1363 6.84064 27.7967C6.95055 27.4571 7.14004 27.1487 7.39333 26.8972C7.61391 26.6771 7.88184 26.5102 8.1767 26.4093C8.47156 26.3084 8.78556 26.2761 9.09478 26.3149C9.41951 26.3539 9.72985 26.4714 9.99901 26.6572C10.2682 26.8429 10.4881 27.0915 10.6397 27.3812C10.7856 27.73 10.8446 28.109 10.8117 28.4856C10.7787 28.8622 10.6548 29.2251 10.4506 29.5433C10.4248 29.5983 10.4011 29.6487 10.381 29.6937C10.3075 29.8184 10.267 29.9597 10.2632 30.1043C10.2593 30.2489 10.2924 30.3921 10.3591 30.5204C10.4179 30.5987 10.4946 30.6617 10.5828 30.7041C10.671 30.7466 10.7681 30.7672 10.8659 30.7642C10.9593 30.7631 11.0522 30.7507 11.1426 30.7273C11.2599 30.7014 11.3811 30.6747 11.455 30.7625C11.4795 30.7901 11.4945 30.8248 11.4979 30.8615C11.5014 30.8983 11.493 30.9351 11.474 30.9668Z" fill="white"/>
<path d="M38.4147 35.3508C38.8911 34.142 39.1665 32.8634 39.23 31.5656C39.23 29.97 38.3266 29.3086 37.7513 29.3086C37.7337 29.247 37.62 28.831 37.4633 28.3301C37.3737 28.0397 37.2673 27.7547 37.1448 27.4765C37.6156 26.8262 37.8148 26.0181 37.7003 25.2235C37.6061 24.6107 37.3148 24.0454 36.8704 23.6131C36.027 22.8972 35.0206 22.3994 33.9397 22.1637C33.7769 22.1182 33.2401 21.971 33.193 21.9566C33.1893 21.9259 33.1538 20.1989 33.1214 19.4575C33.1075 18.7141 32.9967 17.9756 32.7918 17.2608C32.5372 16.235 32.0109 15.2968 31.2681 14.5448C33.1277 12.6199 34.2886 10.4996 34.2857 8.68067C34.2805 5.18252 29.9782 4.12395 24.6765 6.31626C24.6707 6.31872 23.561 6.78847 23.5531 6.79251C23.5481 6.78759 21.5222 4.80286 21.4918 4.77616C15.4471 -0.488662 -3.45259 20.4886 2.59003 25.5834L3.91058 26.7005C3.55423 27.6554 3.42842 28.6809 3.54338 29.6936C3.72238 31.1669 4.45064 32.5184 5.58268 33.4781C6.68149 34.4754 8.10111 35.0462 9.58442 35.0871C11.9359 40.4981 17.3085 43.8175 23.608 44.0044C30.3655 44.2047 36.0379 41.0385 38.4147 35.3508ZM39.8017 28.9472C40.3806 29.6943 40.6785 30.6211 40.6432 31.5656C40.5824 33.0387 40.2743 34.4912 39.7319 35.8622L39.7191 35.8944C38.4929 38.843 36.352 41.3198 33.6119 42.9598C30.7599 44.6186 27.5106 45.4707 24.2116 45.4247C23.9981 45.4247 23.7805 45.4214 23.5662 45.415C20.3102 45.347 17.1318 44.4088 14.3608 42.6978C11.9217 41.1693 9.94788 39.0019 8.65358 36.4309C7.16242 36.1992 5.77029 35.5406 4.64551 34.5346C3.24705 33.3399 2.35121 31.6612 2.13718 29.8344C2.0418 28.9468 2.09325 28.0496 2.28948 27.1787L1.67643 26.6603C1.1802 26.2317 0.776931 25.7061 0.491449 25.1158C0.205966 24.5255 0.044309 23.8831 0.0164268 23.228C-0.033873 21.8682 0.201141 20.5129 0.706339 19.2494C1.9648 15.8136 4.85985 11.7224 8.45114 8.30519C10.0538 6.75003 11.8316 5.38624 13.7488 4.24123C15.3479 3.21845 17.1845 2.62691 19.0799 2.52414C20.3024 2.49225 21.4931 2.91584 22.4208 3.71264C22.4737 3.75883 23.2674 4.53504 23.8693 5.12472C24.0204 5.06098 24.1291 5.01512 24.1323 5.01391C25.9131 4.2382 27.827 3.81348 29.7688 3.76304C33.3668 3.76304 35.6945 5.69247 35.6991 8.67854C35.7019 10.521 34.7972 12.5865 33.1295 14.5861C33.5833 15.2876 33.9265 16.0547 34.1472 16.8605C34.3841 17.6855 34.5139 18.5374 34.5333 19.3955C34.5494 19.7646 34.566 20.3569 34.5793 20.8797C35.8097 21.1912 36.9467 21.795 37.8938 22.6399C38.5359 23.2769 38.957 24.1029 39.0953 24.9967C39.2344 25.879 39.098 26.7827 38.7049 27.5847C38.7399 27.6852 38.7763 27.7942 38.8125 27.9098C38.844 28.0106 38.8737 28.1077 38.9015 28.1999C39.2478 28.3873 39.5537 28.6413 39.8017 28.9472Z" fill="white"/>
<path d="M35.5186 27.2C35.7478 26.9846 35.9265 26.7212 36.0421 26.4287C36.1576 26.1362 36.207 25.8218 36.1869 25.5079C36.141 25.1916 35.9934 24.8987 35.7664 24.6737C35.1003 24.1208 34.3078 23.7413 33.4594 23.569C33.0719 23.4591 32.809 23.3887 32.5258 23.2944C32.022 23.1268 31.7731 22.9918 31.7168 22.0343C31.6922 21.6155 31.6199 20.1566 31.5939 19.5538C31.548 18.4974 31.4221 17.0536 30.5361 16.4574C30.3108 16.3079 30.0487 16.2232 29.7784 16.2126C29.6272 16.2033 29.4754 16.2183 29.3288 16.2571C28.8791 16.3622 28.4698 16.5961 28.151 16.9302C27.7383 17.3071 27.2517 17.594 26.7221 17.7728C26.1925 17.9515 25.6315 18.0182 25.0748 17.9685C24.4547 17.9422 23.7975 17.8446 23.0442 17.7995C22.8975 17.7908 22.7506 17.7816 22.6038 17.7739C21.6303 17.8026 20.6996 18.1803 19.9815 18.8381C19.2633 19.4959 18.8055 20.3899 18.6915 21.3571C18.2602 24.3571 20.409 25.9074 21.0294 26.8171C21.1253 26.9332 21.1847 27.0751 21.2001 27.2249C21.184 27.3911 21.105 27.5448 20.9793 27.6546L20.9795 27.6555C20.1204 28.6225 19.5173 29.7893 19.2252 31.0494C18.933 32.3095 18.9612 33.6227 19.3071 34.8691C19.3891 35.1684 19.4942 35.461 19.6215 35.744C21.1894 39.4485 26.0535 41.1737 30.8055 39.6047C31.428 39.3991 32.0319 39.1411 32.6108 38.8335C33.6527 38.3127 34.5898 37.6046 35.3754 36.7447C36.6011 35.5016 37.4061 33.9054 37.6771 32.1808C37.8203 31.2261 37.6106 30.8566 37.3253 30.6789C37.1237 30.5655 36.8902 30.5224 36.6615 30.5564C36.5405 29.8069 36.3282 29.0751 36.0293 28.3772L35.5186 27.2Z" fill="white"/>
<path d="M27.7302 12.8929C27.8069 12.9105 27.8556 12.778 27.787 12.7396C26.6518 12.1513 25.3996 11.8236 24.1217 11.7804C24.1094 11.7802 24.0974 11.7766 24.0871 11.7701C24.0767 11.7635 24.0683 11.7542 24.0629 11.7431C24.0575 11.7321 24.0552 11.7198 24.0563 11.7076C24.0575 11.6953 24.062 11.6836 24.0693 11.6738C24.2679 11.4142 24.4998 11.1818 24.759 10.9826C24.7707 10.9736 24.7791 10.9611 24.7831 10.947C24.7871 10.9328 24.7864 10.9178 24.7813 10.904C24.7761 10.8902 24.7667 10.8785 24.7543 10.8705C24.742 10.8625 24.7275 10.8586 24.7128 10.8595C23.1481 11.0132 21.6439 11.5435 20.3288 12.4051C20.3175 12.4126 20.3043 12.4167 20.2908 12.4166C20.2773 12.4166 20.264 12.4125 20.2529 12.4049C20.2417 12.3972 20.2331 12.3864 20.2281 12.3739C20.2231 12.3613 20.222 12.3475 20.225 12.3343C20.3309 11.9392 20.4868 11.5593 20.6889 11.2037C20.6956 11.1915 20.6981 11.1775 20.6962 11.1637C20.6943 11.1499 20.688 11.1371 20.6783 11.1272C20.6686 11.1173 20.6559 11.1107 20.6422 11.1085C20.6285 11.1063 20.6144 11.1086 20.602 11.115C18.7029 12.1581 17.0103 13.5393 15.6076 15.1906C15.5966 15.2031 15.5906 15.2193 15.5908 15.236C15.591 15.2527 15.5973 15.2687 15.6085 15.281C15.6198 15.2934 15.6351 15.3011 15.6517 15.3029C15.6683 15.3046 15.6849 15.3002 15.6985 15.2905C17.3241 14.1545 19.1555 13.3462 21.0902 12.9106C23.2742 12.4068 25.5436 12.4008 27.7302 12.8929Z" fill="white"/>
<path d="M22.1373 7.53452C22.1373 7.53452 20.4921 5.62986 19.9955 5.48937C16.9401 4.66488 10.34 9.21017 6.12578 15.2153C4.42062 17.6451 1.97965 21.9479 3.14685 24.1609C3.56171 24.6578 4.02938 25.1081 4.54161 25.5038C5.32365 24.4077 6.50063 23.6578 7.8246 23.4123C9.48619 18.767 12.4029 14.6731 16.2508 11.5855C18.0973 10.0743 20.0662 8.71932 22.1373 7.53452Z" fill="white"/>
<path d="M11.3637 30.8839C11.3874 30.9125 11.4018 30.9477 11.4052 30.9848C11.4085 31.0219 11.4005 31.0591 11.3822 31.0915C11.2936 31.2355 11.1664 31.3518 11.0152 31.4273C10.8639 31.5029 10.6946 31.5347 10.5262 31.5191C10.2262 31.4868 9.94966 31.3418 9.75245 31.1134C9.55524 30.885 9.45209 30.5902 9.46384 30.2887C9.45876 29.8778 9.53378 29.4698 9.68472 29.0876C9.78 28.8481 9.78994 28.5831 9.71287 28.3371C9.63581 28.0911 9.47643 27.8792 9.26152 27.7369C9.13433 27.6527 8.99157 27.5949 8.84166 27.5668C8.69176 27.5388 8.53774 27.541 8.38872 27.5735C8.24272 27.6042 8.10433 27.6638 7.9817 27.7488C7.85907 27.8337 7.75468 27.9424 7.67465 28.0683C7.56145 28.2621 7.47344 28.4696 7.41275 28.6856C7.40103 28.7237 7.39159 28.7535 7.38443 28.7728C7.28498 29.0411 7.12643 29.1193 7.01901 29.1049C6.96823 29.0979 6.89839 29.0639 6.85363 28.9411C6.79745 28.5862 6.82295 28.2231 6.92818 27.8795C7.03341 27.5359 7.21562 27.2209 7.46093 26.9583C7.66695 26.7371 7.92268 26.5681 8.20697 26.4652C8.49125 26.3624 8.79593 26.3288 9.09579 26.3671C9.41347 26.4107 9.71536 26.5325 9.97443 26.7215C10.2335 26.9104 10.4417 27.1607 10.5803 27.4499C10.7206 27.8053 10.7773 28.1882 10.7458 28.569C10.7143 28.9498 10.5956 29.3183 10.3988 29.6458C10.3739 29.7015 10.3511 29.7526 10.3319 29.7988C10.2611 29.9267 10.2222 30.0698 10.2186 30.2159C10.2149 30.3621 10.2466 30.507 10.3109 30.6383C10.3652 30.7166 10.4382 30.7802 10.5231 30.8234C10.6081 30.8666 10.7024 30.888 10.7977 30.8858C10.8876 30.8845 10.9769 30.8719 11.0635 30.8482C11.1763 30.8218 11.2929 30.7947 11.3637 30.8839ZM39.1695 31.578C39.1064 32.8728 38.8329 34.1487 38.3595 35.3555C35.9982 41.0311 30.3629 44.1908 23.6498 43.9908C17.3916 43.8043 12.054 40.4919 9.71791 35.0922C8.24316 35.0509 6.83233 34.4811 5.74257 33.4866C4.61682 32.5269 3.89353 31.1787 3.71655 29.71C3.60232 28.6996 3.72728 27.6764 4.08135 26.7232L2.7694 25.6084C-3.23357 20.5243 15.5421 -0.408881 21.5474 4.845C21.5777 4.87145 23.5902 6.8522 23.5952 6.85708C23.6032 6.853 24.7056 6.3841 24.7112 6.38181C29.9783 4.19406 34.2524 5.25039 34.2577 8.74101C34.2605 10.5564 33.1073 12.6723 31.26 14.5929C31.9983 15.3444 32.521 16.2804 32.7734 17.3031C32.9771 18.0166 33.0872 18.7536 33.1009 19.4955C33.133 20.2352 33.1685 21.9587 33.1721 21.9893C33.2189 22.0035 33.7522 22.1503 33.9138 22.1959C34.9884 22.4316 35.9884 22.9284 36.8254 23.6424C37.2673 24.0744 37.5566 24.6384 37.6499 25.2493C37.7638 26.0419 37.566 26.8478 37.0981 27.4976C37.2198 27.7752 37.3255 28.0597 37.4145 28.3495C37.57 28.8494 37.6831 29.2643 37.7005 29.3258C38.2719 29.3258 39.1695 29.9857 39.1695 31.578ZM12.6408 28.4636C12.2326 25.8133 10.4452 24.8793 9.23237 24.8127C8.92794 24.7965 8.62268 24.8183 8.32362 24.8775C6.15894 25.3155 4.93637 27.1625 5.17694 29.5625C5.35214 30.6391 5.88523 31.6251 6.69006 32.3612C7.49488 33.0974 8.52441 33.5406 9.61227 33.6193C9.82046 33.6249 10.0287 33.6102 10.2341 33.5756C12.428 33.2003 13.0025 30.8107 12.6408 28.4636ZM16.3407 11.6396C18.1744 10.1321 20.1304 8.77996 22.1885 7.59716C22.1885 7.59716 20.5544 5.69657 20.0608 5.55651C17.0255 4.73349 10.4684 9.26931 6.28199 15.2618C4.58803 17.6865 2.16308 21.9803 3.3225 24.1887C3.73438 24.6843 4.19901 25.1337 4.70816 25.5287C5.48331 24.4361 6.65291 23.6877 7.96976 23.4417C9.61725 18.8105 12.5145 14.7256 16.3407 11.6396ZM22.9378 32.6125C23.0182 32.9647 23.1923 33.2887 23.4417 33.5501C23.691 33.8116 24.0064 34.0009 24.3544 34.0979C24.7164 34.2328 25.09 34.3346 25.4704 34.4019C30.2718 35.2303 34.7605 32.4767 35.7712 31.7831C35.8471 31.731 35.8972 31.7818 35.8363 31.8737C35.8059 31.9227 35.7729 31.9699 35.7374 32.0153C34.5005 33.6156 31.1752 35.4688 26.8489 35.4682C24.9621 35.4679 23.0762 34.8011 22.3838 33.7766C21.3095 32.1869 22.3306 29.8666 24.1206 30.1083C24.1227 30.1087 24.7331 30.1781 24.9047 30.1971C27.6872 30.4647 30.4919 30.0146 33.0509 28.8896C35.4932 27.7524 36.4157 26.501 36.2774 25.488C36.2311 25.1734 36.0832 24.8825 35.8563 24.6597C35.1884 24.11 34.3954 23.7332 33.5474 23.5627C33.1595 23.4535 32.8963 23.3838 32.6127 23.2901C32.1086 23.1236 31.8594 22.9895 31.8029 22.0387C31.7784 21.6228 31.7061 20.1742 31.6799 19.5755C31.6338 18.5265 31.5082 17.0927 30.6211 16.5007C30.3952 16.3521 30.1331 16.268 29.8629 16.2576C29.7114 16.2484 29.5594 16.2633 29.4127 16.3018C28.9633 16.4058 28.5538 16.638 28.2339 16.9702C27.8193 17.3449 27.3318 17.6299 26.8019 17.8074C26.272 17.9848 25.7112 18.0508 25.1546 18.0013C24.5339 17.9753 23.8762 17.8783 23.1222 17.8334C22.9756 17.8248 22.8283 17.8156 22.6813 17.8081C21.7105 17.8336 20.7812 18.2068 20.0624 18.8599C19.3437 19.5129 18.8834 20.4024 18.7653 21.3663C18.3337 24.3454 20.4845 25.8848 21.1055 26.7882C21.2014 26.9032 21.2609 27.0442 21.2764 27.1932C21.26 27.3585 21.1809 27.5112 21.0554 27.6199V27.6208C20.1965 28.5777 19.5928 29.7358 19.3002 30.9879C19.0077 32.24 19.0356 33.5457 19.3816 34.7841C19.4637 35.0815 19.5689 35.372 19.6962 35.653C21.2657 39.3317 26.1343 41.0447 30.8908 39.4865C31.5136 39.2825 32.1181 39.0265 32.6979 38.7211C33.7394 38.2047 34.6774 37.5016 35.4651 36.6466C36.6901 35.4155 37.4962 33.8298 37.769 32.1145C37.9122 31.1663 37.7026 30.7996 37.4167 30.6231C37.2147 30.5105 36.9812 30.4677 36.7523 30.5013C36.6312 29.7567 36.4187 29.0299 36.1196 28.3372C34.7612 29.3623 33.2255 30.1284 31.5896 30.5972C29.6212 31.1533 27.5735 31.3754 25.5317 31.2542C24.2182 31.1477 23.3492 30.7631 23.0223 31.8286C25.0093 32.493 27.1189 32.7083 29.1991 32.4588C29.2138 32.4573 29.2285 32.4587 29.2426 32.4629C29.2567 32.4671 29.2698 32.4741 29.2812 32.4834C29.2926 32.4927 29.3021 32.5042 29.309 32.5172C29.3159 32.5302 29.3203 32.5444 29.3217 32.559C29.3239 32.5836 29.3184 32.6083 29.306 32.6297C29.2936 32.651 29.2748 32.668 29.2523 32.6782C29.2523 32.6782 26.8125 33.8145 22.9378 32.6125ZM15.7923 15.3369C17.4061 14.204 19.2257 13.3973 21.1488 12.9622C23.3183 12.4595 25.5733 12.4534 27.7454 12.9444C27.8214 12.9619 27.8699 12.8298 27.8019 12.7916C26.6747 12.2047 25.4305 11.8776 24.1604 11.8342C24.1482 11.834 24.1362 11.8304 24.1259 11.8239C24.1156 11.8173 24.1072 11.808 24.1019 11.797C24.0965 11.786 24.0942 11.7738 24.0954 11.7616C24.0965 11.7494 24.101 11.7378 24.1083 11.7279C24.3056 11.469 24.536 11.2371 24.7937 11.0382C24.8053 11.0291 24.8136 11.0167 24.8176 11.0026C24.8216 10.9885 24.821 10.9735 24.8158 10.9598C24.8107 10.9461 24.8013 10.9343 24.789 10.9263C24.7768 10.9183 24.7623 10.9144 24.7477 10.9152C23.1924 11.069 21.6977 11.5983 20.3922 12.4576C20.3811 12.4652 20.3679 12.4692 20.3545 12.4692C20.341 12.4691 20.3278 12.465 20.3167 12.4574C20.3056 12.4498 20.297 12.439 20.2921 12.4265C20.2872 12.414 20.2862 12.4002 20.2892 12.3871C20.3943 11.993 20.5492 11.6139 20.75 11.2589C20.7567 11.2468 20.7593 11.2328 20.7574 11.2191C20.7555 11.2054 20.7493 11.1926 20.7397 11.1827C20.73 11.1728 20.7174 11.1662 20.7037 11.164C20.6901 11.1617 20.6761 11.1639 20.6637 11.1703C18.7758 12.2124 17.0943 13.5908 15.702 15.2375C15.6911 15.25 15.6852 15.2661 15.6853 15.2827C15.6855 15.2993 15.6917 15.3152 15.7029 15.3275C15.7141 15.3397 15.7293 15.3475 15.7458 15.3492C15.7623 15.351 15.7789 15.3466 15.7923 15.3369ZM28.4363 25.4494C28.5677 25.5326 28.7251 25.5645 28.8785 25.539C29.032 25.5135 29.1706 25.4324 29.2681 25.3111C29.3892 25.0767 29.2134 24.7588 28.8752 24.6009C28.7437 24.5177 28.5862 24.4859 28.4328 24.5114C28.2794 24.537 28.1407 24.6182 28.0433 24.7395C27.9221 24.9737 28.0981 25.2916 28.4363 25.4494ZM29.4736 21.6483C29.5547 22.0703 29.7297 22.4687 29.9857 22.8139C30.2502 22.7813 30.5177 22.7813 30.7822 22.8139C30.9368 22.3506 30.9504 21.8519 30.8211 21.3809C30.6299 20.5119 30.3712 19.986 29.8367 20.0678C29.3023 20.1497 29.2826 20.7793 29.4736 21.6483ZM30.6107 23.6444C30.4759 23.6057 30.3324 23.6103 30.2003 23.6574C30.0682 23.7045 29.9542 23.7918 29.8742 23.907C29.7943 24.0222 29.7525 24.1596 29.7547 24.2999C29.7568 24.4401 29.8029 24.5761 29.8863 24.6888C29.9698 24.8015 30.0865 24.8853 30.22 24.9283C30.3535 24.9712 30.4971 24.9713 30.6306 24.9285C30.7642 24.8856 30.881 24.802 30.9645 24.6894C31.0481 24.5768 31.0943 24.4408 31.0966 24.3006C31.116 24.1496 31.0763 23.997 30.9857 23.8747C30.8951 23.7524 30.7608 23.6699 30.6107 23.6444Z" fill="black"/>
<path d="M21.7361 23.5675C21.6508 23.5555 21.6145 23.5191 21.6038 23.4707C21.5707 23.3208 21.8012 23.0741 22.0443 22.896C22.3989 22.6367 22.8144 22.473 23.2506 22.4206C23.6869 22.3682 24.1293 22.429 24.5353 22.597C24.9146 22.7535 25.2408 23.016 25.4748 23.3531C25.5617 23.4949 25.5785 23.6048 25.5223 23.6624C25.4348 23.7547 25.2116 23.649 24.8483 23.4896C24.4118 23.2754 23.9294 23.1716 23.4435 23.1871C22.8676 23.2818 22.2976 23.4088 21.7361 23.5675ZM25.3577 24.3131C25.2007 24.1481 25.0052 24.0246 24.7887 23.9536C24.5723 23.8826 24.3416 23.8665 24.1174 23.9066C23.7867 23.9417 23.4734 24.0723 23.2156 24.2824C23.0955 24.3686 23.0129 24.4976 22.9849 24.6427C22.9842 24.6589 22.9871 24.675 22.9934 24.6899C22.9996 24.7048 23.0091 24.7181 23.0211 24.729C23.0424 24.7483 23.0702 24.7589 23.099 24.7586C23.2179 24.7411 23.3342 24.7089 23.4452 24.6626C23.931 24.4795 24.4558 24.425 24.9689 24.5043C25.2067 24.5311 25.319 24.5459 25.3711 24.4643C25.3845 24.4407 25.3904 24.4136 25.388 24.3866C25.3856 24.3596 25.375 24.334 25.3577 24.3131Z" fill="black"/>
<path d="M24.6841 24.5311C24.8341 23.9971 24.8427 23.4333 24.7091 22.8951C24.5157 22.0248 24.2232 21.5274 23.6812 21.6093C23.1391 21.6913 23.1251 22.3926 23.2998 23.2666C23.3801 23.6671 23.5366 24.0484 23.7607 24.3899C24.192 24.9918 24.4852 24.836 24.6841 24.5311Z" fill="black"/>
<path d="M59.3935 25.2993C56.4127 25.2993 56.3609 28.5537 55.6553 28.5537C55.5084 28.5537 55.3918 28.4241 55.3918 28.2456C55.3918 28.008 55.4537 27.802 55.4537 27.4176C55.4537 26.2497 54.6314 25.2993 52.9078 25.2993C51.4447 25.2993 50.3734 26.0323 49.7196 27.3873C49.3884 28.0742 49.4172 28.5523 49.0817 28.5523C48.9578 28.5523 48.8614 28.4356 48.8614 28.2672C48.8614 27.7689 49.3006 27.3139 49.3006 26.244C49.3006 25.966 49.279 25.7313 49.2343 25.5398H46.4004V36.5328H50.2481V30.5683C50.2481 29.3932 50.7521 28.6401 51.6118 28.6401C52.182 28.6401 52.6889 29.1384 52.6889 30.0499V36.5328H56.5366V30.5683C56.5366 29.2478 57.1471 28.6401 57.9002 28.6401C58.531 28.6401 58.9774 29.2233 58.9774 30.0499V36.5328H62.7804V29.7835C62.7804 26.8344 61.6097 25.2979 59.395 25.2979L59.3935 25.2993Z" fill="black"/>
<path d="M85.7093 22.4629H81.9062V36.5331H85.7093V22.4629Z" fill="black"/>
<path d="M86.9634 30.9049C86.9634 34.6445 89.384 36.7973 92.5261 36.7973C94.3275 36.7973 95.7042 36.0845 96.5494 35.3905V31.7631C95.6941 32.3477 94.3779 33.0159 92.9653 33.0159C91.2027 33.0159 90.2826 32.2844 90.2826 31.0157C90.2826 29.7471 91.3438 29.0372 92.899 29.0372C94.3074 29.0372 95.599 29.5973 96.548 30.2468V26.3991C95.7445 25.8015 94.3261 25.2773 92.5246 25.2773C89.1522 25.2773 86.9619 27.3855 86.9619 30.9063L86.9634 30.9049Z" fill="black"/>
<path d="M104.926 25.3207C103.379 25.3207 102.484 26.0378 101.826 27.3655C101.536 27.9516 101.515 28.5305 101.188 28.5305C101.065 28.5305 100.967 28.4167 100.967 28.2454C100.967 27.6362 101.693 26.7276 101.693 24.0463C101.693 23.3724 101.627 22.8526 101.496 22.4854H98.1768V36.534H102.024V30.617C102.024 29.5082 102.608 28.663 103.498 28.663C104.16 28.663 104.619 29.2015 104.619 30.0727V36.534H108.467V29.6522C108.467 26.7809 107.214 25.3207 104.927 25.3207H104.926Z" fill="black"/>
<path d="M140.235 25.2773C138.534 25.2773 137.666 26.2465 137.181 27.1421C136.796 27.8506 136.74 28.5317 136.41 28.5317C136.249 28.5317 136.168 28.4367 136.168 28.2466C136.168 27.9097 136.607 27.338 136.607 26.4005C136.607 26.0189 136.577 25.7338 136.52 25.5437H133.64V39.3505H137.509V35.0132C138 36.0615 139.028 36.7556 140.434 36.7556C142.968 36.7556 144.699 34.6647 144.699 31.0172C144.699 27.6519 143.095 25.2788 140.236 25.2788L140.235 25.2773ZM139.201 34.2255C138.425 34.2255 137.574 33.4205 137.574 31.3887C137.574 29.6189 138.269 28.5749 139.201 28.5749C140.272 28.5749 140.871 29.6074 140.871 31.3887C140.871 33.3687 140.182 34.2255 139.201 34.2255Z" fill="black"/>
<path d="M69.6554 25.2778C67.6682 25.2778 65.8481 25.7688 64.5837 26.3981V29.582C66.0554 28.7871 67.5645 28.1981 68.8879 28.1981C70.3049 28.1981 70.9053 28.9455 70.8204 29.929C70.2487 29.87 69.6137 29.8455 68.8433 29.8455C65.8337 29.8455 63.9473 31.0205 63.9473 33.578C63.9473 35.6789 65.5831 36.7618 67.373 36.7618C69.1629 36.7618 70.3207 35.9266 71.0162 34.668C71.4122 33.9509 71.3791 33.5117 71.6369 33.5117C71.7636 33.5117 71.8514 33.6024 71.8514 33.7436C71.8514 34.2029 71.7204 34.4708 71.7204 35.0928C71.7204 35.6746 71.7967 36.1642 71.9177 36.5199H74.6839V30.6346C74.6839 27.2924 73.1546 25.2764 69.6554 25.2764V25.2778ZM68.3594 34.0604C67.6452 34.0604 67.2621 33.7479 67.2621 33.2036C67.2621 32.4951 67.9289 31.9522 69.6554 31.9522C70.0356 31.9522 70.3797 31.9652 70.6922 31.9911C70.5396 33.0034 69.6583 34.0604 68.3594 34.0604Z" fill="black"/>
<path d="M83.3727 15.1802V9.0127H80.7246V14.8649C80.7246 16.3149 79.754 17.2841 78.4796 17.2841C77.2052 17.2841 76.2347 16.3135 76.2347 14.8649V9.0127H73.5908L73.6052 15.1802C73.6052 17.8658 75.7551 19.83 78.4868 19.83C81.2185 19.83 83.3727 17.8701 83.3727 15.1802Z" fill="black"/>
<path d="M93.5993 19.6171H96.2431V11.4897H99.3981V9.01294H90.4413V11.4897H93.5993V19.6171Z" fill="black"/>
<path d="M88.7317 9.01758H86.0879V19.6217H88.7317V9.01758Z" fill="black"/>
<path d="M66.0794 19.6171H68.7232V11.4897H71.8768V9.01294H62.92V11.4897H66.0794V19.6171Z" fill="black"/>
<path d="M49.0442 14.3211V9.01758H46.4004V19.6203H49.0442V14.3211Z" fill="black"/>
<path d="M54.4021 13.7649C54.4021 12.3148 55.3727 11.3457 56.6471 11.3457C57.9215 11.3457 58.892 12.3163 58.892 13.7649V19.6171H61.5359L61.5287 13.4496C61.5272 10.7625 59.3744 8.7998 56.6428 8.7998C53.9111 8.7998 51.7568 10.7596 51.7568 13.4496V19.6171H54.4007V13.7649H54.4021Z" fill="black"/>
<path d="M128.649 25.2993C125.669 25.2993 125.617 28.5537 124.911 28.5537C124.764 28.5537 124.648 28.4241 124.648 28.2455C124.648 28.0079 124.709 27.802 124.709 27.4175C124.709 26.2497 123.887 25.2993 122.164 25.2993C120.701 25.2993 119.629 26.0323 118.975 27.3873C118.644 28.0742 118.673 28.5523 118.337 28.5523C118.214 28.5523 118.117 28.4356 118.117 28.2671C118.117 27.7689 118.556 27.3139 118.556 26.2439C118.556 25.966 118.535 25.7313 118.49 25.5398H115.653V36.5327H119.501V30.5683C119.501 29.3932 120.005 28.6401 120.865 28.6401C121.435 28.6401 121.942 29.1383 121.942 30.0499V36.5327H125.789V30.5683C125.789 29.2478 126.4 28.6401 127.153 28.6401C127.784 28.6401 128.23 29.2233 128.23 30.0499V36.5327H132.033V29.7835C132.033 26.8343 130.863 25.2979 128.648 25.2979L128.649 25.2993Z" fill="black"/>
<path d="M112.005 26.3103C111.199 26.3103 110.561 26.1937 110.093 25.959V36.5343H113.896V25.959C113.402 26.1764 112.814 26.3103 112.005 26.3103Z" fill="black"/>
<path d="M111.984 22.3975C110.412 22.3975 109.588 23.093 109.588 23.8922C109.588 24.7533 110.563 25.3869 111.984 25.3869C113.405 25.3869 114.38 24.7533 114.38 23.8922C114.38 23.093 113.555 22.3975 111.984 22.3975Z" fill="black"/>
<path d="M78.3127 26.3103C77.5063 26.3103 76.8684 26.1937 76.4004 25.959V36.5343H80.2034V25.959C79.7095 26.1764 79.122 26.3103 78.3127 26.3103Z" fill="black"/>
<path d="M78.2906 22.3975C76.7182 22.3975 75.8945 23.093 75.8945 23.8922C75.8945 24.7533 76.8694 25.3869 78.2906 25.3869C79.7119 25.3869 80.6868 24.7533 80.6868 23.8922C80.6868 23.093 79.8617 22.3975 78.2906 22.3975Z" fill="black"/>
</svg>
