<svg width="127" height="111" viewBox="0 0 127 111" fill="none" xmlns="http://www.w3.org/2000/svg">
<g clip-path="url(#clip0_1_255)">
<path fill-rule="evenodd" clip-rule="evenodd" d="M0.0684814 79.122H30.5602V88.3661H21.8144V110.586H9.10832V88.3661H0.0684814V79.122Z" fill="#0876B9"/>
<path fill-rule="evenodd" clip-rule="evenodd" d="M46.0021 91.8349L39.5841 110.586H27.381L39.3491 79.1221H52.5983L64.8532 110.586H52.5036L46.0021 91.8349Z" fill="#0876B9"/>
<path fill-rule="evenodd" clip-rule="evenodd" d="M61.9406 79.1221H92.4317V88.3661H83.6865V110.586H70.9804V88.3661H61.9406V79.1221Z" fill="#0876B9"/>
<path fill-rule="evenodd" clip-rule="evenodd" d="M107.876 91.8349L101.457 110.586H89.254L101.222 79.1221H114.471L126.727 110.586H114.377L107.876 91.8349Z" fill="#0876B9"/>
<path fill-rule="evenodd" clip-rule="evenodd" d="M108.113 21.3693C106.979 19.1482 105.482 17.017 103.626 15.0201C99.4512 10.5296 93.5597 6.79385 86.5869 4.21643C79.5613 1.61959 71.5424 0.24707 63.3972 0.24707C55.2519 0.24707 47.2331 1.61959 40.208 4.21643C33.2347 6.79385 27.3425 10.5296 23.1683 15.0201C21.3117 17.0175 19.8139 19.1498 18.6798 21.372C27.7547 19.1859 43.2794 16.2971 57.6944 15.9935C59.0853 15.9641 60.0423 16.407 60.6728 17.2023C61.4415 18.1719 61.3824 21.6296 61.3624 23.1741L60.9519 63.1297C61.7651 63.1569 62.5806 63.1746 63.3972 63.1746C64.2204 63.1746 65.0393 63.1602 65.8519 63.1325L65.442 23.1741C65.4214 21.6296 65.3629 18.1719 66.1316 17.2023C66.7621 16.407 67.7185 15.9641 69.1094 15.9935C83.5183 16.2971 99.0363 19.1842 108.113 21.3693Z" fill="#0876B9"/>
<path fill-rule="evenodd" clip-rule="evenodd" d="M111.179 26.0714C97.8959 23.0794 89.027 22.5266 80.2729 22.0427C72.6446 21.6214 72.546 24.3354 73.3085 29.5229C73.3548 29.8393 73.4172 30.2378 73.4907 30.6934C76.0491 45.795 79.2347 58.7914 79.7833 60.9942C98.3838 56.7607 111.798 45.0152 111.798 31.2179C111.798 29.4813 111.586 27.7608 111.179 26.0714Z" fill="#0876B9"/>
<path fill-rule="evenodd" clip-rule="evenodd" d="M54.6273 30.0151C55.3893 24.8275 55.2912 22.1136 47.6629 22.5348C38.906 23.0188 30.0344 23.5721 16.7462 26.5658C16.3401 28.2547 16.1273 29.9741 16.1273 31.7101C16.1273 37.6741 18.562 43.4456 23.1686 48.4017C27.3429 52.8917 33.235 56.6274 40.2083 59.2048C42.7349 60.1389 45.3969 60.902 48.1408 61.5114C48.6566 59.4451 51.9168 46.1773 54.5058 30.806C54.5521 30.5102 54.5944 30.2393 54.6273 30.0151Z" fill="#0876B9"/>
</g>
<defs>
<clipPath id="clip0_1_255">
<rect width="127" height="111" fill="white"/>
</clipPath>
</defs>
</svg>
